<svg xmlns="http://www.w3.org/2000/svg" xml:space="preserve" style="fill-rule:evenodd;clip-rule:evenodd;stroke-linejoin:round;stroke-miterlimit:2" viewBox="0 0 80 56"><path d="M16 974.362c-.93 0-1.81.22-2.594.594l33.782 34.154c1.57 1.59 3.989 1.59 5.562 0l33.844-34.154a6.017 6.017 0 0 0-2.594-.594H16Zm73.406 3.406-25.375 25.662 25.375 23.56c.382-.79.594-1.69.594-2.63v-43.998c0-.93-.219-1.809-.594-2.594Zm-78.843.032a6.016 6.016 0 0 0-.563 2.562v43.998c0 .94.212 1.84.594 2.63l25.344-23.53-25.375-25.66Zm50.625 28.47-5.594 5.66c-3.089 3.12-8.162 3.12-11.25 0l-5.563-5.63-25.312 23.5c.768.36 1.626.56 2.531.56h68c.905 0 1.763-.2 2.531-.56l-25.343-23.53Z" style="fill-rule:nonzero" transform="translate(-10 -974.362)"/></svg>